<?xml version="1.0" encoding="utf-8"?>
<!-- Generator: Adobe Illustrator 22.0.0, SVG Export Plug-In . SVG Version: 6.00 Build 0)  -->
<svg version="1.1" xmlns="http://www.w3.org/2000/svg" xmlns:xlink="http://www.w3.org/1999/xlink" x="0px" y="0px"
	 viewBox="0 0 90.3 110.1" style="enable-background:new 0 0 90.3 110.1;" xml:space="preserve">
<style type="text/css">
	.st0{fill:none;stroke:#000000;stroke-width:11;stroke-miterlimit:10;}
</style>
<g id="Layer_3">
	<path class="st0" d="M84.8,0.1l0,77.6h0c-0.1,1.9-1.2,13.6-11.2,21.1c-2.5,1.9-10.7,7.4-20.9,5.2c-7.3-1.6-11.7-6.3-13.6-8.4
		c-6.8-7.5-7.6-16.3-7.8-19.2l0,0.5V0"/>
</g>
<g id="Layer_2">
	<path class="st0" d="M59,0.1l0,77.6h0c-0.1,1.9-1.2,13.6-11.2,21.1c-2.5,1.9-10.7,7.4-20.9,5.2c-7.3-1.6-11.7-6.3-13.6-8.4
		c-6.8-7.5-7.6-16.3-7.8-19.2l0,0.5V0"/>
</g>
</svg>
