<?xml version="1.0" encoding="utf-8"?>
<!-- Generator: Adobe Illustrator 22.0.0, SVG Export Plug-In . SVG Version: 6.00 Build 0)  -->
<svg version="1.1" id="Laag_1" xmlns="http://www.w3.org/2000/svg" xmlns:xlink="http://www.w3.org/1999/xlink" x="0px" y="0px"
	 viewBox="0 0 1085.6 245.1" style="enable-background:new 0 0 1085.6 245.1;" xml:space="preserve">
<g>
	<path d="M719.3,27.6h-39.5v15.1h39.5c13.8,0,25.2,10.1,27.3,23.3l-43.9,8.5c-9.1,2.1-16.9,7.7-21.8,15.6c-5,7.9-6.5,17.3-4.4,26.5
		c3.8,16.4,18.6,27.4,34.7,27.1l50.8,0V70.4C762,46.8,742.9,27.6,719.3,27.6z M746.9,128.6h-35.9c-9.2,0.1-17.6-6.1-19.7-15.5
		c-1.2-5.1-0.3-10.5,2.5-15.1c2.8-4.5,7.2-7.7,12.4-8.9l40.9-7.8L746.9,128.6z"/>
	<path d="M936.5,143.7H976v-15.1h-39.5c-13.8,0-25.2-10.1-27.3-23.3l43.9-8.5c9.1-2.1,16.9-7.7,21.8-15.6c5-7.9,6.5-17.3,4.4-26.5
		c-3.8-16.4-18.6-27.4-34.7-27.1l-50.8,0V101C893.8,124.5,912.9,143.7,936.5,143.7z M908.9,42.7h35.9c9.2-0.1,17.6,6.1,19.7,15.5
		c1.2,5.1,0.3,10.5-2.5,15.1c-2.8,4.5-7.2,7.7-12.4,8.9L908.8,90L908.9,42.7z"/>
	<path d="M105,0v102.7c0,15.3-12.4,27.6-27.7,27.6c-0.7,0-1.3,0-2-0.1c6.3-7.4,10.1-17,10.1-27.5V0H70.4v102.7
		c0,8.7-4.1,16.4-10.3,21.5c-6.3-5.1-10.3-12.8-10.3-21.5V0H34.6v102.7c0,10.5,3.8,20.1,10.1,27.5c-0.7,0.1-1.3,0.1-2,0.1
		c-15.2,0-27.6-12.4-27.6-27.6V0H0v102.7c0,23.6,19.2,42.7,42.7,42.7c6.2,0,12-1.3,17.3-3.7c5.3,2.4,11.2,3.7,17.3,3.7
		c23.6,0,42.8-19.2,42.8-42.7V0H105z"/>
	<path d="M291.3,27.7c-23.5,0-42.7,19.2-42.7,42.7v73.2h15.1V70.4c0-15.2,12.4-27.6,27.6-27.6c15.3,0,27.6,12.4,27.6,27.6v73.2H334
		V70.4C334,46.9,314.9,27.7,291.3,27.7"/>
	<path d="M399.9,27.7c-23.6,0-42.7,19.2-42.7,42.7v73.2h15.1V70.4c0-15.2,12.4-27.6,27.6-27.6c15.2,0,27.7,12.4,27.7,27.6v73.2h15.1
		V70.4C442.6,46.9,423.5,27.7,399.9,27.7"/>
	<path d="M827.9,143.7c23.6,0,42.7-19.2,42.7-42.7V27.6h-15.1V101c0,15.2-12.4,27.6-27.6,27.6c-15.2,0-27.7-12.4-27.7-27.6V27.6
		h-15.1V101C785.2,124.5,804.3,143.7,827.9,143.7"/>
	<path d="M613.9,27.6c-10.5,0-20.2,3.9-27.6,10.2V0h-15.1v70.4v42v31.3h15.1v-31.3v-42c0-15.2,12.4-27.6,27.6-27.6
		c15.2,0,27.7,12.4,27.7,27.6v73.3h15.1V70.4C656.6,46.8,637.5,27.6,613.9,27.6z"/>
	<path d="M1052.9,78.1h-20.9h0c-9.8,0-17.7-7.9-17.7-17.7s7.9-17.7,17.7-17.7h0h49.5V27.6h-49.5l0,0h0c-18.1,0-32.8,14.7-32.8,32.8
		c0,18.1,14.7,32.8,32.8,32.8h0l0,0h20.9c9.8,0,17.7,7.9,17.7,17.7s-7.9,17.7-17.7,17.7h-49.5v15.1h49.5c18.1,0,32.8-14.7,32.8-32.8
		C1085.6,92.8,1071,78.1,1052.9,78.1z"/>
	<path d="M505.3,27.6h-39.5v15.1h39.5c13.8,0,25.2,10.1,27.3,23.3l-43.9,8.5c-9.1,2.1-16.9,7.7-21.8,15.6c-5,7.9-6.5,17.3-4.4,26.5
		c3.8,16.4,18.6,27.4,34.7,27.1l50.8,0V70.4C548,46.8,528.9,27.6,505.3,27.6z M532.9,128.6h-35.9c-9.2,0.1-17.6-6.1-19.7-15.5
		c-1.2-5.1-0.3-10.5,2.5-15.1c2.8-4.5,7.2-7.7,12.4-8.9l40.9-7.8L532.9,128.6z"/>
	<path d="M182.8,27.6h-39.5v15.1h39.5c13.8,0,25.2,10.1,27.3,23.3l-43.9,8.5c-9.1,2.1-16.9,7.7-21.8,15.6c-5,7.9-6.5,17.3-4.4,26.5
		c3.8,16.4,18.6,27.4,34.7,27.1l50.8,0V70.4C225.5,46.8,206.3,27.6,182.8,27.6z M210.3,128.6h-35.9c-9.2,0.1-17.6-6.1-19.7-15.5
		c-1.2-5.1-0.3-10.5,2.5-15.1c2.8-4.5,7.2-7.7,12.4-8.9l40.9-7.8L210.3,128.6z"/>
</g>
<g>
	<path d="M143.1,215.5h-15.6v28.8h-6.1v-28.8h-15.5v-5.4h37.3V215.5z"/>
	<path d="M185.6,210.1v34.1h-6.1v-14.9h-24.3v14.9h-6.1v-34.1h6.1v14h24.3v-14H185.6z"/>
	<path d="M199.8,223.9h25.1v5.1h-25.1V239h26.5v5.2h-32.7v-34.1h32v5.2h-25.9V223.9z"/>
	<path d="M273.1,215.6c-1.9-0.9-4.6-1.4-8.1-1.4c-6.6,0-9.9,1.7-9.9,5c0,1.3,0.5,2.3,1.4,2.9c0.9,0.6,2.3,1,4.3,1.1l12.7,1.1
		c3.4,0.3,6,1.2,7.8,2.7c1.8,1.5,2.7,3.8,2.7,7.1c0,3.9-1.6,6.7-4.8,8.4c-3.2,1.7-7.7,2.6-13.7,2.6c-5.8,0-10.3-0.9-13.5-2.8
		c-3.2-1.9-4.8-5.1-4.9-9.6h6.7c0.1,2.8,1.2,4.7,3.2,5.8c2,1.1,4.9,1.6,8.7,1.6c3.7,0,6.5-0.5,8.5-1.4c2-0.9,2.9-2.3,2.9-4.2
		c0-1.6-0.5-2.8-1.4-3.4c-0.9-0.7-2.3-1.1-4.1-1.3l-12.8-1.2c-3.4-0.4-6-1.2-7.8-2.6c-1.8-1.4-2.7-3.5-2.7-6.5
		c0-3.5,1.5-6.1,4.4-7.8c2.9-1.7,7.1-2.5,12.4-2.5c11.7,0,17.6,3.7,17.8,11.2h-6.7C276,218.1,275,216.5,273.1,215.6z"/>
	<path d="M320.3,211.3c3.1,1.3,5.5,3.3,7.3,6c1.8,2.7,2.6,6,2.6,9.9s-0.9,7.2-2.6,9.9c-1.8,2.7-4.2,4.7-7.3,6c-3.1,1.3-6.7,2-10.8,2
		c-4.1,0-7.7-0.7-10.8-2c-3.1-1.3-5.5-3.3-7.3-6c-1.8-2.7-2.6-6-2.6-9.9s0.9-7.2,2.6-9.9c1.8-2.7,4.2-4.7,7.3-6
		c3.1-1.3,6.7-2,10.8-2C313.6,209.2,317.2,209.9,320.3,211.3z M319.7,236.7c2.5-2.1,3.8-5.3,3.8-9.5s-1.3-7.4-3.8-9.5
		c-2.5-2.1-5.9-3.2-10.2-3.2c-4.3,0-7.7,1.1-10.2,3.2c-2.5,2.1-3.8,5.3-3.8,9.5s1.3,7.4,3.8,9.5c2.5,2.1,5.9,3.2,10.2,3.2
		C313.8,239.9,317.2,238.8,319.7,236.7z"/>
	<path d="M364.2,216.7c-2-1.5-5-2.2-8.8-2.2c-4,0-7.3,1.1-9.7,3.2c-2.4,2.1-3.7,5.3-3.7,9.5c0,4.2,1.2,7.3,3.7,9.5
		c2.4,2.1,5.7,3.2,9.7,3.2c3.9,0,6.8-0.8,8.9-2.3c2.1-1.6,3.1-3.7,3.3-6.4h7.2c-0.1,2.9-0.9,5.4-2.5,7.5c-1.6,2.1-3.8,3.7-6.7,4.9
		s-6.3,1.7-10.2,1.7c-3.9,0-7.4-0.7-10.4-2c-3-1.3-5.4-3.4-7.1-6c-1.7-2.7-2.6-6-2.6-9.9c0-3.9,0.9-7.2,2.6-9.9
		c1.7-2.7,4.1-4.7,7.1-6c3-1.3,6.5-2,10.4-2c3.9,0,7.2,0.6,10.1,1.7c2.8,1.1,5,2.7,6.6,4.7c1.6,2,2.4,4.3,2.6,7h-7.1
		C367.4,220.2,366.3,218.2,364.2,216.7z"/>
	<path d="M381.4,244.3v-34.1h6.1v34.1H381.4z"/>
	<path d="M423.9,236.6h-21l-3.8,7.6h-6.7l17.5-34.1h7.2l17.5,34.1h-6.9L423.9,236.6z M421.3,231.5l-7.8-15.5h-0.2l-7.8,15.5H421.3z"
		/>
	<path d="M439.5,244.3v-34.1h6.1v28.8h26.5v5.3H439.5z"/>
	<path d="M529.5,228.8c0.9,1.3,1.3,3.2,1.3,5.8c0,3.3-0.9,5.8-2.8,7.3c-1.9,1.6-4.8,2.4-8.8,2.4h-24.4v-34.1h24
		c3.7,0,6.4,0.7,8.2,2.2c1.8,1.5,2.6,3.7,2.6,6.6c0,3.8-1.3,6.1-3.8,6.9v0.2C527.4,226.5,528.7,227.5,529.5,228.8z M521.8,223
		c0.8-0.7,1.2-1.8,1.2-3.4s-0.4-2.7-1.2-3.4c-0.8-0.7-2.1-1.1-3.9-1.1H501v8.9h16.8C519.7,224.1,521,223.7,521.8,223z M522.8,238
		c1-0.8,1.5-2.2,1.5-4c0-1.8-0.5-3.1-1.5-3.9c-1-0.8-2.5-1.2-4.5-1.2H501v10.4h17.2C520.3,239.2,521.8,238.8,522.8,238z"/>
	<path d="M574.9,244.3h-7.2l-8.4-13.9h-15.7v13.9h-6.1v-34.1h24.9c4.1,0,7.1,0.8,9,2.4c1.9,1.6,2.8,4.2,2.8,7.7
		c0,5.4-2.7,8.5-8.2,9.5v0.2L574.9,244.3z M566.1,223.9c0.9-0.8,1.3-2,1.3-3.7c0-1.7-0.4-2.9-1.3-3.6c-0.9-0.8-2.3-1.1-4.2-1.1
		h-18.2v9.6h18.2C563.8,225.1,565.2,224.7,566.1,223.9z"/>
	<path d="M608.7,236.6h-21l-3.8,7.6h-6.7l17.5-34.1h7.2l17.5,34.1h-6.9L608.7,236.6z M606.2,231.5l-7.8-15.5h-0.2l-7.8,15.5H606.2z"
		/>
	<path d="M660.8,210.1v34.1h-6.9l-23.5-26.4h-0.2v26.4h-5.8v-34.1h7.2l23.3,26.2h0.2v-26.2H660.8z"/>
	<path d="M706.1,227.2c0,11.4-6,17.1-17.9,17.1h-19.4v-34.1h19.4C700.2,210.1,706.1,215.8,706.1,227.2z M675,215.3v23.8h12
		c4,0,7.1-1,9.2-2.9c2.2-1.9,3.2-4.9,3.2-9c0-4.1-1.1-7.1-3.2-9c-2.2-1.9-5.2-2.9-9.2-2.9H675z"/>
	<path d="M757.1,236.6h-21l-3.8,7.6h-6.7l17.5-34.1h7.2l17.5,34.1h-6.9L757.1,236.6z M754.5,231.5l-7.8-15.5h-0.2l-7.8,15.5H754.5z"
		/>
	<path d="M808.7,244.3h-5.1v-5.1c-1.5,2-3.4,3.5-5.7,4.5s-5.1,1.5-8.3,1.5c-4.2,0-7.9-0.7-11.1-2c-3.2-1.3-5.6-3.3-7.4-6
		s-2.6-6-2.6-9.9s0.9-7.2,2.6-9.9c1.7-2.7,4.1-4.7,7.2-6c3.1-1.3,6.7-2,10.9-2c6,0,10.6,1.1,13.7,3.3c3.1,2.2,4.9,5.1,5.4,8.8h-7.1
		c-0.4-2-1.6-3.6-3.4-4.9c-1.9-1.3-4.8-1.9-8.7-1.9c-4.3,0-7.7,1.1-10.2,3.2c-2.5,2.1-3.8,5.3-3.8,9.5s1.3,7.4,3.8,9.5
		c2.5,2.1,6,3.2,10.5,3.2c7.2,0,11.2-3,12-8.9h-11.5V226h18.6V244.3z"/>
	<path d="M822.9,223.9H848v5.1h-25.1V239h26.5v5.2h-32.7v-34.1h32v5.2h-25.9V223.9z"/>
	<path d="M893.1,210.1v34.1h-6.9l-23.5-26.4h-0.2v26.4h-5.8v-34.1h7.2l23.3,26.2h0.2v-26.2H893.1z"/>
	<path d="M928.5,216.7c-2-1.5-5-2.2-8.8-2.2c-4,0-7.3,1.1-9.7,3.2s-3.7,5.3-3.7,9.5c0,4.2,1.2,7.3,3.7,9.5c2.4,2.1,5.7,3.2,9.7,3.2
		c3.9,0,6.8-0.8,8.9-2.3c2.1-1.6,3.1-3.7,3.3-6.4h7.2c-0.1,2.9-0.9,5.4-2.5,7.5c-1.6,2.1-3.8,3.7-6.7,4.9s-6.3,1.7-10.2,1.7
		s-7.4-0.7-10.4-2c-3-1.3-5.4-3.4-7.1-6c-1.7-2.7-2.6-6-2.6-9.9c0-3.9,0.9-7.2,2.6-9.9c1.7-2.7,4.1-4.7,7.1-6c3-1.3,6.5-2,10.4-2
		c3.9,0,7.2,0.6,10.1,1.7c2.8,1.1,5,2.7,6.6,4.7c1.6,2,2.4,4.3,2.6,7h-7.1C931.7,220.2,930.6,218.2,928.5,216.7z"/>
	<path d="M962.9,231.5v12.7h-6.1v-12.6l-16.9-21.5h7.6l12.4,16l12.6-16h7.3L962.9,231.5z"/>
</g>
</svg>
